<?xml version="1.0" encoding="utf-8"?>
<!-- Generator: Adobe Illustrator 19.2.1, SVG Export Plug-In . SVG Version: 6.00 Build 0)  -->
<svg version="1.1" id="layer" xmlns="http://www.w3.org/2000/svg" xmlns:xlink="http://www.w3.org/1999/xlink" x="0px" y="0px"
	 viewBox="0 0 652 652" style="enable-background:new 0 0 652 652;" xml:space="preserve">
<g>
	<path d="M126.4,371.8c0-5.3,0-10.4,0-15.6c0-0.5,0.1-1.1,0.3-1.6c0.2-0.4,0.7-1,1.1-1c3.4,0,6.8,0.1,10.2,0.1
		c2.8,0,5.7-0.2,8.5-0.5c0.7-0.1,1.4-0.7,1.8-1.3c2-2.8,2.7-6.1,2.8-9.5c0.1-6.1-0.2-12.2-0.2-18.3c0-5.6,0.2-11.1,0.3-16.7
		c0.1-5.4,0.1-10.7-1.5-16c-0.7-2.4-1.9-3.7-4.6-3.7c-5.6,0.1-11.2-0.1-16.8-0.1c-0.6,0-1.3-0.1-2-0.1v-18h79.5v18.2
		c-2.2,0-4.4-0.2-6.5,0c-5.2,0.6-6,0.9-6.6,6.7c-0.6,5.5-0.1,11.2-0.1,17c0.9-0.5,1.6-0.8,2.3-1.2c10.4-6,20.7-12,31.1-18
		c1.2-0.7,1.1-1.4,0.5-2.4c-1.3-1.9-3.5-2.1-5.5-2.2c-1.9-0.1-3.7,0-5.8,0v-18.1h77.5v17.9c-0.3,0-0.5,0.1-0.8,0.1
		c-11.6-0.6-22,2.8-31.9,8.6c-4.8,2.8-9.6,5.5-14.5,8.3c2.3,3.1,4.7,6.2,7,9.4c7.8,10.5,15.5,21.1,23.4,31.6c2.8,3.7,6,7.1,10.8,7.9
		c3.2,0.6,6.5,0.5,10.1,0.7c1.4,5.5,0.1,11.6,0.5,17.6h-82.3v-18.1c2.9,0,5.6,0.1,8.4,0c0.9,0,1.7-0.4,2.5-0.7
		c2.5-1.1,3.6-3.2,2.7-6c-0.7-2.1-1.4-4.3-2.7-6.2c-3.9-5.7-8.1-11.2-12.1-16.8c-0.7-0.9-1.5-1.1-2.4-0.6c-1.5,0.8-3,1.5-4.4,2.4
		c-4.7,3-9.4,6-14.1,9c-0.3,0.2-0.6,0.6-0.6,0.8c0.1,4.1,0.1,8.2,0.3,12.2c0,0.9,0.3,1.8,0.7,2.7c0.9,2.4,1.9,3,4.5,3
		c2.2,0,4.4,0.1,6.6,0.3c0.8,0,1.3,0.5,1.3,1.4c0,5.2,0,10.5,0,15.7c0,0.2-0.1,0.5-0.1,0.8H126.4z"/>
	<path d="M307.9,371.7c0.2-5.7,0.3-11.2,0.5-16.8c0-1,0.4-1.4,1.6-1.4c3.4,0.1,6.8,0.2,10.2,0.2c2.7,0,5.4-0.2,8.1-0.5
		c0.7-0.1,1.6-0.8,2-1.4c1.7-2.5,2.6-5.4,2.6-8.4c0.1-6.5-0.1-13-0.1-19.5c0-4.7,0.1-9.4,0.2-14c0.1-5.5,0.3-11-0.9-16.5
		c-1.1-5.1-1.3-5.4-6.5-5.7c-5.2-0.3-10.3-0.1-15.5-0.1c-0.6,0-1.2-0.1-1.9-0.1v-18.1h79.4v18c-1.4-0.2-2.7-0.5-4.1-0.5
		c-5.1-0.2-8.2,2.2-8.8,7.3c-0.5,3.9-0.4,7.9-0.5,11.8c0,1.7,0,3.4,0,5.5c2.8-1.5,5.3-2.8,7.7-4.2c8.7-5.1,17.3-10.2,26-15.3
		c1-0.6,1-1.2,0.5-2c-0.8-1.4-2.1-2.1-3.6-2.2c-2.6-0.2-5.2-0.3-7.9-0.5v-17.9h77.6v18c-0.5,0-1,0-1.5,0
		c-10.3-0.4-19.8,2.2-28.7,7.3c-5.6,3.2-11.3,6.4-17.1,9.7c1.8,2.5,3.7,5.2,5.7,7.7c5,6.5,10.2,12.9,15.1,19.6
		c3.2,4.3,5.8,8.9,9.1,13.1c5.2,6.7,12.1,9.9,20.7,8.8c0.9-0.1,1,0.4,1.1,1c0.2,2.8,0.4,5.6,0.5,8.4c0.1,2.8,0,5.7,0,8.6H397v-18
		c0.6,0,1.3,0,1.9,0c2.6-0.1,5.2,0,7.8-0.5c4.6-0.9,6.4-5.2,4.1-9.3c-0.7-1.2-1.5-2.3-2.4-3.3c-3.1-3.3-5.8-7-7.9-11
		c-1-1.8-2.2-3.5-3.5-5.1c-1.3-1.7-2-1.8-4-0.8c-1.5,0.8-3,1.7-4.5,2.6c-4.5,2.8-8.9,5.6-13.3,8.5c-0.3,0.2-0.7,0.7-0.7,1.1
		c0,4,0.1,8.1,0.3,12.1c0,0.8,0.3,1.5,0.6,2.3c0.9,2.7,2,3.4,4.8,3.4c2.2,0,4.3,0.1,6.5,0.3c0.4,0,1.1,0.7,1.1,1.1
		c0.1,5.5,0,11,0,16.7H307.9z"/>
	<path d="M620.3,269.4v33.8c-5,0.3-10,0.6-14.9,0.9c-3.1,0.2-5.6-0.9-7.6-3.1c-1.6-1.7-3.3-3.4-4.7-5.3c-3.5-4.8-8.3-7.7-13.7-9.9
		c-7.7-3.1-15.6-4.7-23.8-5.1c-6.1-0.3-12.2-0.2-18.2,1.6c-3.5,1-6.7,2.5-8.8,5.6c-2.6,3.8-2.9,9.7,2.7,12.8c3.5,2,7.4,3.1,11.4,3.4
		c7.7,0.7,15.5,1.1,23.3,1.5c11,0.6,22,1.1,32.7,4.1c5,1.4,9.6,3.4,13.7,6.7c5.2,4.1,8.1,9.6,9.1,16.1c1.4,8.9,0,17.3-5.7,24.6
		c-3.9,5-9,8.6-14.8,11.3c-7.7,3.6-15.8,5.6-24.2,6.5c-12.1,1.3-24,0.7-35.7-2.8c-4.5-1.4-8.9-3.4-13.4-5.1c-2-0.7-4.1-1.3-6.2-1.8
		c-4.3-0.9-7.5,1-8.9,5.1c-0.4,1.2-1,1.5-2.2,1.5c-5.2-0.1-10.4,0-15.6,0v-33.5c0.4,0,0.9-0.1,1.3-0.1c5.1,0,10.3,0,15.4,0
		c0.7,0,1.6,0.4,2,0.9c9.8,12,22.6,18.6,37.8,20.7c8.6,1.2,17.1,0.8,25.3-2.4c2.7-1.1,5.3-2.4,7.2-4.8c3-3.8,2.3-8-1.7-10.6
		c-3.2-2.1-6.9-3.3-10.6-3.8c-6.2-0.8-12.4-1.4-18.7-1.8c-11.1-0.8-22.3-1.1-33.3-3.6c-5.9-1.4-11.7-3.1-16.3-7.2
		c-8.4-7.5-12.9-16.9-12.2-28.2c0.5-8,4.7-14.2,10.9-19c6.7-5.2,14.4-8.1,22.5-9.8c17.3-3.7,34.4-2.9,51.2,2.5
		c4.1,1.3,7.9,3.3,11.9,4.8c1.5,0.6,3.1,1.1,4.7,1.3c4.9,0.7,7.6-1.2,8.5-6.1c0.3-1.4,0.8-1.7,2.1-1.7c5.3,0.1,10.7,0,16,0H620.3z"
		/>
	<path d="M110.9,269.4v18.2c-2.4,0-4.7-0.1-7.1,0c-4.4,0.1-8.7,0.3-13.1,0.4c-1,0-1.4,0.6-1.7,1.3c-2,4.1-2.4,8.5-2.4,13
		c0.1,9.2,0.2,18.4,0.3,27.7c0.1,5.8,0.3,11.5,0.3,17.3c0,4.8,1.2,5.7,6.1,6.2c4.4,0.5,8.9,0.1,13.4,0.1c1.3,0,2.6,0,4.1,0v18.3
		h-1.6c-28.5,0-57,0-85.5,0c-1.4,0-1.8-0.3-1.8-1.8c0.1-5.4,0-10.8,0-16.5c2.8,0,5.5,0,8.2,0c3.8-0.1,7.7-0.2,11.5-0.3
		c1.4,0,2.4-0.6,2.8-2c0.7-2.4,1.6-4.8,1.7-7.3c0.2-6.3,0-12.6,0.1-18.9c0.1-5.2,0.3-10.3,0.4-15.5c0.1-5,0.2-10-0.2-15
		c-0.4-5.5-4-8.2-9.5-7.6c-2.9,0.3-5.9,0.7-8.8,0.9c-1.8,0.1-3.5-0.1-5.3-0.2c-0.3,0-0.8-0.6-0.8-0.9c-0.1-4.2-0.1-8.4-0.1-12.6
		c0-1.3,0.3-2.6,0.6-3.9c0.1-0.4,0.6-0.7,1-0.9c0.3-0.1,0.7,0,1,0H109H110.9z"/>
</g>
</svg>
